<?xml version="1.0" encoding="utf-8"?>
<!-- Generator: Adobe Illustrator 25.2.0, SVG Export Plug-In . SVG Version: 6.00 Build 0)  -->
<svg version="1.1" id="Layer_1" xmlns="http://www.w3.org/2000/svg" xmlns:xlink="http://www.w3.org/1999/xlink" x="0px" y="0px"
	 viewBox="0 0 1280 720" style="enable-background:new 0 0 1280 720;" xml:space="preserve">
<style type="text/css">
	.st0{fill:#49B170;}
	.st1{fill:#FFFFFF;}
	.st2{fill:none;stroke:#000000;stroke-width:48;stroke-linecap:round;stroke-linejoin:round;stroke-miterlimit:10;}
</style>
<image style="overflow:visible;" width="579" height="628" xlink:href="76E90DDE.jpg"  transform="matrix(1 0 0 1 1298.0222 55.1489)">
</image>
<image style="overflow:visible;" width="530" height="530" xlink:href="e2caabba9d239c4ea96a539566698342.jpg"  transform="matrix(1 0 0 1 -765.1064 797.2766)">
</image>
<image style="overflow:visible;" width="1400" height="956" xlink:href="1826b784600915.5d6264f2c4831.jpg"  transform="matrix(1 0 0 1 -101.9778 754.2979)">
</image>
<rect x="-27.2" y="785.5" class="st0" width="1307.2" height="769"/>
<path d="M205.8-212.7c-25.4,0-51.2-11-75.3-32.3C98-273.8,67.5-308.5,31.8-357.6c-7.8-10.7-5.4-25.7,5.3-33.5
	c10.7-7.8,25.7-5.4,33.5,5.3c33.6,46.1,61.9,78.5,91.8,104.9c17.4,15.3,33.9,22,49.1,19.8c28.9-4.2,53.7-19.5,66.2-40.9
	c14.1-24.3,15.8-54.8,4.4-81.7c-10.4-24.5-29.4-41.3-53.7-47.3c-42.5-10.5-61.2-1.6-105,50.6c-8.5,10.1-23.7,11.5-33.8,2.9
	c-10.1-8.5-11.5-23.7-2.9-33.8c49.1-58.5,84.6-83.3,153.3-66.3c38.7,9.6,70.2,37,86.4,75.2c17.2,40.7,14.6,87.3-7.1,124.6
	c-20.1,34.5-56.8,57.9-100.8,64.3C214.2-213,210-212.7,205.8-212.7z"/>
<path d="M-929.8,379.8c-25.4,0-51.2-11-75.3-32.3c-32.6-28.8-63.1-63.6-98.8-112.6c-7.8-10.7-5.4-25.7,5.3-33.5
	c10.7-7.8,25.7-5.4,33.5,5.3c33.6,46.1,61.9,78.5,91.8,104.9c17.4,15.3,33.9,22,49.1,19.8c28.9-4.2,53.7-19.5,66.2-40.9
	c14.1-24.3,15.8-54.8,4.4-81.7c-10.4-24.5-29.4-41.3-53.7-47.3c-42.5-10.5-61.2-1.6-105,50.6c-8.5,10.1-23.7,11.5-33.8,2.9
	c-10.1-8.5-11.5-23.7-2.9-33.8c49.1-58.5,84.6-83.3,153.3-66.3c38.7,9.6,70.2,37,86.4,75.2c17.2,40.7,14.6,87.3-7.1,124.6
	c-20.1,34.5-56.8,57.9-100.8,64.3C-921.5,379.5-925.7,379.8-929.8,379.8z"/>
<g>
	<g>
		<path class="st1" d="M732.2,568.3c-1.4,0-2.9-0.1-4.4-0.3c-11.8-1.4-22.4-7.3-29.8-16.6c-7.4-9.3-10.7-21-9.3-32.8L725,206.7
			c2.6-22.4,21.6-39.4,44.2-39.4c1.7,0,3.5,0.1,5.2,0.3c24.4,2.8,41.9,25,39.1,49.3l-36.3,311.9c-2.6,22.4-21.6,39.4-44.2,39.4
			C732.7,568.3,732.4,568.3,732.2,568.3z"/>
		<path class="st0" d="M769.2,187.8c0.9,0,1.9,0.1,2.8,0.2c13.2,1.5,22.6,13.4,21.1,26.6l-36.3,311.9c-1.4,12.2-11.8,21.2-23.8,21.2
			c-0.1,0-0.3,0-0.4,0c-0.8,0-1.6-0.1-2.4-0.2c-13.2-1.5-22.6-13.5-21.1-26.6l36.3-311.9C746.8,196.8,757.2,187.8,769.2,187.8
			 M769.2,146.8C769.2,146.8,769.2,146.8,769.2,146.8c-33,0-60.7,24.7-64.5,57.5l-36.3,311.9c-4.1,35.6,21.4,67.9,57,72.1
			c2.1,0.2,4.3,0.4,6.4,0.4c0.4,0,0.8,0,1.1,0c33,0,60.7-24.7,64.5-57.5l36.3-311.9c4.1-35.6-21.4-67.9-57-72.1
			C774.3,147,771.7,146.8,769.2,146.8L769.2,146.8z"/>
	</g>
	<g>
		<path class="st1" d="M732,486.1c-20.2,0-37.9-13.7-43-33.3l-78.1-299c-6.2-23.7,8.1-48.1,31.8-54.3c3.7-1,7.5-1.5,11.3-1.5
			c20.2,0,37.9,13.7,43,33.3L775,430.3c3,11.5,1.3,23.5-4.7,33.7s-15.7,17.6-27.2,20.6C739.5,485.6,735.7,486.1,732,486.1z"/>
		<path class="st0" d="M653.9,118.5c10.7,0,20.4,7.1,23.2,17.9l78.1,299.1c3.4,12.8-4.3,25.9-17.2,29.3c-2,0.5-4.1,0.8-6.1,0.8
			c-10.7,0-20.4-7.1-23.2-17.9l-78.1-299c-3.4-12.8,4.3-25.9,17.2-29.3C649.8,118.8,651.9,118.5,653.9,118.5 M653.9,77.5
			C653.9,77.5,653.9,77.5,653.9,77.5c-5.5,0-11.1,0.7-16.5,2.1c-34.7,9.1-55.5,44.6-46.5,79.3l78.1,299
			c7.5,28.6,33.3,48.6,62.9,48.6c5.5,0,11.1-0.7,16.4-2.1c16.8-4.4,30.9-15.1,39.7-30c8.8-15,11.2-32.5,6.8-49.3l-78.1-299
			C709.3,97.5,683.4,77.5,653.9,77.5L653.9,77.5z"/>
	</g>
	<g>
		<path class="st1" d="M705.4,428.9c-14.6,0-28.2-7.1-36.5-19.1L493.2,157.6c-6.8-9.8-9.4-21.6-7.3-33.3
			c2.1-11.7,8.6-21.9,18.4-28.7c7.5-5.2,16.3-8,25.4-8c14.6,0,28.2,7.1,36.5,19.1L741.9,359c6.8,9.8,9.4,21.6,7.3,33.3
			c-2.1,11.7-8.6,21.9-18.4,28.7C723.3,426.2,714.5,428.9,705.4,428.9z"/>
		<path class="st0" d="M529.7,108.2c7.6,0,15.1,3.6,19.7,10.3L725,370.7c7.6,10.9,4.9,25.8-6,33.4c-4.2,2.9-9,4.3-13.7,4.3
			c-7.6,0-15.1-3.6-19.7-10.3L510,145.9c-7.6-10.9-4.9-25.8,6-33.4C520.2,109.6,524.9,108.2,529.7,108.2 M529.7,67.2
			C529.7,67.2,529.7,67.2,529.7,67.2C529.7,67.2,529.7,67.2,529.7,67.2c-13.3,0-26.2,4-37.1,11.7c-29.4,20.5-36.7,61.1-16.2,90.5
			L652,421.6c12.1,17.4,32.1,27.9,53.4,27.9c13.3,0,26.2-4,37.1-11.7c14.2-9.9,23.8-24.8,26.8-41.9c3.1-17.1-0.7-34.3-10.6-48.6
			L583,95C570.9,77.6,550.9,67.2,529.7,67.2L529.7,67.2L529.7,67.2z"/>
	</g>
	<g>
		<path class="st1" d="M596.9,672c-36.9,0-73.1-15.5-107.6-45.9c-43.9-38.8-84.8-85.4-132.7-151.1c-7-9.6-9.8-21.4-8-33.1
			c1.8-11.7,8.2-22.1,17.8-29.1c7.7-5.6,16.7-8.5,26.2-8.5c14.2,0,27.6,6.8,36,18.3c43.9,60.3,80.8,102.5,119.7,136.8
			c17.7,15.6,34.2,23.6,49,23.6c1.9,0,3.9-0.1,5.8-0.4c34.5-5,63.8-22.9,78.4-48c17.4-29.9,18.9-70.4,3.7-103.3
			c-12.1-26.3-32.9-43.4-58.4-48.1c-19-3.5-31.4-5-40.3-5c-6.1,0-10.4,0.7-14.5,2.3c-12.3,4.8-29.6,20.8-57.4,48.5
			c-8.4,8.4-19.6,13-31.5,13c-11.9,0-23.1-4.6-31.5-13c-17.3-17.4-17.3-45.6,0-62.9c33.8-33.7,58.1-56.7,87.7-68.4
			c14.8-5.8,29.7-8.5,46.9-8.5c14.8,0,31.2,1.9,56.5,6.5c54.1,9.9,99,45.8,123.2,98.4c27.3,59.3,24.3,130.3-7.7,185.3
			c-14.3,24.5-35.2,45.8-60.4,61.6c-24.2,15.1-52.6,25.4-82.2,29.7C609.5,671.5,603.1,672,596.9,672z"/>
		<path class="st0" d="M586.3,309.6c15,0,31.9,2.4,52.8,6.2c47.4,8.7,86.9,40.3,108.3,86.9c24.5,53.3,21.9,117.1-6.8,166.4
			c-12.6,21.6-31.1,40.5-53.6,54.6c-21.8,13.6-47.4,22.9-74.2,26.7c-5.3,0.8-10.6,1.2-16,1.2c-31.8,0-63.3-13.7-94-40.8
			c-42.7-37.8-82.7-83.4-129.7-147.8c-7.8-10.7-5.4-25.7,5.3-33.5c4.3-3.1,9.2-4.6,14.1-4.6c7.4,0,14.7,3.4,19.4,9.9
			c44.8,61.5,82.6,104.8,122.6,140.1c21.6,19.1,42.6,28.7,62.6,28.7c2.9,0,5.9-0.2,8.7-0.6c40.6-5.9,75.5-27.5,93.2-58
			c20.7-35.5,22.5-83.4,4.7-122.2c-15-32.6-41-53.8-73.3-59.7c-19.6-3.6-33.4-5.4-44-5.4c-9,0-15.7,1.3-22,3.7
			c-15.8,6.2-33.3,22.1-64.4,53.1c-4.7,4.7-10.8,7-17,7c-6.1,0-12.3-2.3-17-7c-9.4-9.4-9.4-24.6,0-33.9
			c31.9-31.9,54.8-53.6,80.8-63.8C559.6,311.7,572.1,309.6,586.3,309.6 M586.3,268.6C586.3,268.6,586.3,268.6,586.3,268.6
			c-19.9,0-37.2,3.2-54.4,9.9c-33.3,13.1-59.1,37.4-94.7,73c-10.6,10.6-16.7,23.9-18.5,37.7c-8.1-3.6-17-5.5-26.1-5.5
			c-13.8,0-27.1,4.3-38.2,12.5c-14,10.2-23.2,25.3-25.9,42.4c-2.7,17.2,1.4,34.3,11.7,48.4c48.8,67,90.6,114.6,135.6,154.4
			c38.3,33.9,79.1,51.1,121.1,51.1c7.2,0,14.6-0.5,21.8-1.6c32.4-4.7,63.5-15.9,90.1-32.6c28.1-17.6,51.3-41.3,67.3-68.7
			c17.4-29.9,27.4-64.8,28.9-100.7c1.5-35.7-5.6-71.5-20.3-103.5c-13.3-29-32.2-53.4-56-72.5c-23.8-19.1-52.2-32.1-82.2-37.6
			C627,271.9,606.3,268.6,586.3,268.6L586.3,268.6z M484.9,462.5c16.7-0.5,32.3-7.2,44.1-19c13.9-13.9,39.8-39.8,50.4-43.9
			c0.7-0.3,2.3-0.9,7-0.9c7.5,0,19.1,1.5,36.6,4.7c24.1,4.4,36.9,22.3,43.5,36.5c12.2,26.6,11.1,60.5-2.8,84.4
			c-11.3,19.4-35.7,34-63.6,38c-1,0.1-1.9,0.2-2.9,0.2c-9.4,0-22-6.5-35.4-18.4C536.3,521.5,511.6,495.3,484.9,462.5L484.9,462.5z"
			/>
	</g>
</g>
<path class="st2" d="M867.4-413.1c39,53.5,79.1,102.4,126.2,144c25.7,22.7,56.7,38.8,90.6,33.9c47.6-6.9,88.7-32.1,110.5-69.6
	c46.9-80.5,9.6-200.2-85.1-217.6c-73.7-13.5-86.7-6.8-151.7,58.1"/>
<path class="st2" d="M-553.9,66c39,53.5,79.1,102.4,126.2,144c25.7,22.7,56.7,38.8,90.6,33.9c47.6-6.9,88.7-32.1,110.5-69.6
	c46.9-80.5,8.4-194.4-85.1-217.6c-75.3-18.6-111.1,6.2-170.9,77.3"/>
<line class="st2" x1="-178.8" y1="-165.4" x2="-209.7" y2="147.1"/>
<line class="st2" x1="-291.5" y1="-234.4" x2="-213.4" y2="64.6"/>
<line class="st2" x1="-415.7" y1="-244.8" x2="-240" y2="7.5"/>
<image style="overflow:visible;" width="978" height="487" xlink:href="76E90DE6.jpg"  transform="matrix(1 0 0 1 1254.6383 775.1489)">
</image>
<g>
	
		<ellipse transform="matrix(9.853835e-02 -0.9951 0.9951 9.853835e-02 64.0765 1025.4159)" class="st1" cx="598" cy="477.3" rx="98.5" ry="98.5"/>
	<path class="st0" d="M598,395.4c45.3,0,82,36.7,82,82c0,45.3-36.7,82-82,82s-82-36.7-82-82C516.1,432.1,552.8,395.4,598,395.4
		 M598,362.4c-30.7,0-59.6,12-81.3,33.7c-21.7,21.7-33.7,50.6-33.7,81.3c0,30.7,12,59.6,33.7,81.3c21.7,21.7,50.6,33.7,81.3,33.7
		s59.6-12,81.3-33.7C701,536.9,713,508,713,477.3c0-30.7-12-59.6-33.7-81.3C657.6,374.3,628.7,362.4,598,362.4L598,362.4z"/>
</g>
</svg>
